<?xml version="1.0" encoding="iso-8859-1"?>
<!-- Generator: Adobe Illustrator 19.0.0, SVG Export Plug-In . SVG Version: 6.00 Build 0)  -->
<svg xmlns="http://www.w3.org/2000/svg" xmlns:xlink="http://www.w3.org/1999/xlink" version="1.1" id="Capa_1" x="0px" y="0px" viewBox="0 0 512 512" style="enable-background:new 0 0 512 512;" xml:space="preserve" width="512px" height="512px">
<g>
	<g>
		<path d="M504.5,302h-38.255c-3.484-17.096-18.635-30-36.745-30h-145c-4.143,0-7.5,3.358-7.5,7.5V302h-67v-67h22.5    c4.142,0,7.5-3.358,7.5-7.5v-145c0-18.11-12.904-33.261-30-36.745V7.5c0-4.142-3.358-7.5-7.5-7.5h-165C33.358,0,30,3.358,30,7.5    v38.255C12.904,49.239,0,64.39,0,82.5v145c0,4.142,3.358,7.5,7.5,7.5H30v119.5C30,424.804,87.196,482,157.5,482H277v22.5    c0,4.142,3.357,7.5,7.5,7.5h145c18.11,0,33.261-12.904,36.745-30H504.5c4.143,0,7.5-3.358,7.5-7.5v-165    C512,305.358,508.643,302,504.5,302z M45,15h150v30H45V15z M15,82.5C15,70.093,25.093,60,37.5,60h165    c12.407,0,22.5,10.093,22.5,22.5V180H15V82.5z M15,220v-25h210v25H15z M277,467H157.5C95.467,467,45,416.533,45,354.5V235h150    v74.5c0,4.142,3.358,7.5,7.5,7.5H277V467z M452,474.5c0,12.407-10.094,22.5-22.5,22.5H332v-37.5c0-4.142-3.357-7.5-7.5-7.5    s-7.5,3.358-7.5,7.5V497h-25V287h25v142.5c0,4.142,3.357,7.5,7.5,7.5s7.5-3.358,7.5-7.5V287h97.5c12.406,0,22.5,10.093,22.5,22.5    V474.5z M497,467h-30V317h30V467z" fill="#FFFFFF"/>
	</g>
</g>
<g>
	<g>
		<path d="M414.5,452h-45c-4.143,0-7.5,3.358-7.5,7.5c0,4.142,3.357,7.5,7.5,7.5h45c4.143,0,7.5-3.358,7.5-7.5    C422,455.358,418.643,452,414.5,452z" fill="#FFFFFF"/>
	</g>
</g>
<g>
	<g>
		<path d="M414.5,407h-45c-4.143,0-7.5,3.358-7.5,7.5c0,4.142,3.357,7.5,7.5,7.5h45c4.143,0,7.5-3.358,7.5-7.5    C422,410.358,418.643,407,414.5,407z" fill="#FFFFFF"/>
	</g>
</g>
<g>
	<g>
		<path d="M414.5,362h-45c-4.143,0-7.5,3.358-7.5,7.5c0,4.142,3.357,7.5,7.5,7.5h45c4.143,0,7.5-3.358,7.5-7.5    C422,365.358,418.643,362,414.5,362z" fill="#FFFFFF"/>
	</g>
</g>
<g>
	<g>
		<path d="M414.5,317h-45c-4.143,0-7.5,3.358-7.5,7.5c0,4.142,3.357,7.5,7.5,7.5h45c4.143,0,7.5-3.358,7.5-7.5    C422,320.358,418.643,317,414.5,317z" fill="#FFFFFF"/>
	</g>
</g>
<g>
	<g>
		<path d="M187.5,90c-4.142,0-7.5,3.358-7.5,7.5v45c0,4.142,3.358,7.5,7.5,7.5c4.142,0,7.5-3.358,7.5-7.5v-45    C195,93.358,191.642,90,187.5,90z" fill="#FFFFFF"/>
	</g>
</g>
<g>
	<g>
		<path d="M142.5,90c-4.142,0-7.5,3.358-7.5,7.5v45c0,4.142,3.358,7.5,7.5,7.5c4.142,0,7.5-3.358,7.5-7.5v-45    C150,93.358,146.642,90,142.5,90z" fill="#FFFFFF"/>
	</g>
</g>
<g>
	<g>
		<path d="M97.5,90c-4.142,0-7.5,3.358-7.5,7.5v45c0,4.142,3.358,7.5,7.5,7.5c4.142,0,7.5-3.358,7.5-7.5v-45    C105,93.358,101.642,90,97.5,90z" fill="#FFFFFF"/>
	</g>
</g>
<g>
	<g>
		<path d="M52.5,90c-4.142,0-7.5,3.358-7.5,7.5v45c0,4.142,3.358,7.5,7.5,7.5c4.142,0,7.5-3.358,7.5-7.5v-45    C60,93.358,56.642,90,52.5,90z" fill="#FFFFFF"/>
	</g>
</g>
<g>
</g>
<g>
</g>
<g>
</g>
<g>
</g>
<g>
</g>
<g>
</g>
<g>
</g>
<g>
</g>
<g>
</g>
<g>
</g>
<g>
</g>
<g>
</g>
<g>
</g>
<g>
</g>
<g>
</g>
</svg>
