<?xml version="1.0" encoding="iso-8859-1"?>
<!-- Generator: Adobe Illustrator 19.0.0, SVG Export Plug-In . SVG Version: 6.00 Build 0)  -->
<svg xmlns="http://www.w3.org/2000/svg" xmlns:xlink="http://www.w3.org/1999/xlink" version="1.1" id="Layer_1" x="0px" y="0px" viewBox="0 0 512 512" style="enable-background:new 0 0 512 512;" xml:space="preserve" width="512px" height="512px">
<g>
	<g>
		<g>
			<path d="M90.981,105.365l117.333,64c4.757,2.624,10.667,1.237,13.781-3.157l47.552-66.56l24.043,34.965l-31.701,15.851     c-4.075,2.048-6.4,6.443-5.781,10.965c0.597,4.501,4.011,8.149,8.469,9.045l53.333,10.667c0.683,0.149,1.387,0.213,2.112,0.213     c4.971,0,9.408-3.499,10.432-8.576c1.173-5.781-2.581-11.392-8.384-12.544l-22.827-4.565l14.848-7.424     c2.752-1.387,4.8-3.883,5.568-6.869c0.768-2.987,0.213-6.165-1.536-8.704L248.4,31.125c-2.496-3.627-5.504-6.699-8.533-9.749     h89.387c10.731,0,20.672,5.333,26.624,14.251l29.995,44.992c2.987,4.501,8.875,5.995,13.653,3.627l17.024-8.512l-42.304,101.525     c-2.24,5.44,0.32,11.691,5.76,13.952c1.301,0.533,2.688,0.789,4.075,0.789c4.16,0,8.149-2.475,9.856-6.571l53.333-128     c1.707-4.117,0.683-8.875-2.581-11.904c-3.264-3.029-8.043-3.733-12.032-1.749l-34.24,17.131l-24.768-37.163     C363.707,8.896,347.131,0,329.253,0H202.747c-1.749,0-3.328,0.512-4.779,1.259c-2.197-0.256-4.288-0.853-6.549-0.917     c-23.147-0.661-44.309,9.856-58.197,28.352L87.547,89.6c-1.856,2.475-2.56,5.632-1.899,8.661     C86.31,101.291,88.251,103.893,90.981,105.365z M150.288,41.493c9.707-12.928,24.96-19.947,40.704-19.819     c16.149,0.341,30.677,8.171,39.808,21.483l25.963,37.781l-46.528,65.173l-98.219-53.568L150.288,41.493z" fill="#FFFFFF"/>
			<path d="M288.08,192c-5.888,0-10.667,4.779-10.667,10.667V256c0,23.531,19.136,42.667,42.667,42.667     c23.531,0,42.667-19.136,42.667-42.667v-53.333c0-5.888-4.779-10.667-10.667-10.667s-10.667,4.779-10.667,10.667V256     c0,11.776-9.557,21.333-21.333,21.333s-21.333-9.557-21.333-21.333v-53.333C298.747,196.779,293.968,192,288.08,192z" fill="#FFFFFF"/>
			<path d="M506.896,275.093l-49.493-88.299c-1.408-2.517-3.797-4.352-6.592-5.099c-2.773-0.747-5.76-0.32-8.213,1.173l-53.333,32     c-5.056,3.029-6.699,9.579-3.669,14.635c3.051,5.077,9.621,6.677,14.635,3.648l43.925-26.347l43.904,78.251     c3.776,7.552,3.371,16.341-1.067,23.509c-0.555,0.896-1.301,1.6-1.941,2.411c-1.173,0.747-2.219,1.749-3.051,2.965l-0.363,0.512     c-4.245,3.456-9.493,5.547-15.189,5.547h-55.701l-28.8-38.4c-3.563-4.736-10.24-5.675-14.933-2.155     c-4.715,3.541-5.675,10.219-2.155,14.933l19.2,25.6h-53.333c-5.888,0-10.667,4.779-10.667,10.667s4.779,10.667,10.667,10.667     h132.267l-57.941,83.691C395.11,439.424,378.683,448,361.211,448h-30.464c-5.888,0-10.667,4.779-10.667,10.667v14.613     l-61.035-68.672l48.405-67.733c3.413-4.821,2.304-11.456-2.475-14.891c-4.821-3.392-11.456-2.283-14.891,2.475l-53.333,74.667     c-2.901,4.053-2.603,9.579,0.704,13.291l85.333,96c2.048,2.325,4.971,3.584,7.957,3.584c1.28,0,2.56-0.235,3.797-0.683     c4.139-1.579,6.869-5.547,6.869-9.984v-32h19.797c24.469,0,47.445-12.011,61.419-32.171l74.773-108.053     c2.923-2.731,5.547-5.824,7.723-9.344C513.467,306.261,514.235,289.728,506.896,275.093z" fill="#FFFFFF"/>
			<path d="M202.747,320H45.712c-5.504,0-10.688-1.835-14.869-5.099l-0.661-0.96c-0.939-1.344-2.133-2.432-3.477-3.179     c-0.533-0.704-1.045-1.429-1.515-2.197c-4.437-7.189-4.843-15.957-1.067-23.509l38.827-77.632     c2.048-4.096,1.259-9.067-2.005-12.309l-24.448-24.448h112.917c5.888,0,10.667-4.779,10.667-10.667s-4.779-10.667-10.667-10.667     H10.747c-4.309,0-8.213,2.603-9.856,6.592c-1.664,3.989-0.747,8.555,2.304,11.627l37.227,37.227L5.029,275.52     c-7.104,14.208-6.336,30.741,2.005,44.245c2.219,3.584,4.864,6.763,7.829,9.536l74.667,107.883     c13.995,20.139,36.949,32.149,61.419,32.149h51.797c5.888,0,10.667-4.779,10.667-10.667v-128     C213.414,324.779,208.635,320,202.747,320z M192.08,448H150.95c-17.493,0-33.877-8.576-43.861-22.955l-57.941-83.712H192.08V448z     " fill="#FFFFFF"/>
			<path d="M139.43,198.912l-32,85.333c-2.069,5.525,0.725,11.669,6.229,13.739c5.504,2.155,11.669-0.704,13.739-6.229l5.419-14.421     h33.216l5.397,14.421c1.6,4.267,5.675,6.912,9.984,6.912c1.259,0,2.517-0.213,3.755-0.683c5.504-2.069,8.299-8.213,6.229-13.739     l-32-85.333C156.283,190.613,142.544,190.613,139.43,198.912z M140.795,256l8.597-22.955L158.011,256H140.795z" fill="#FFFFFF"/>
			<path d="M277.414,288c0-5.888-4.779-10.667-10.667-10.667h-32v-74.667c0-5.888-4.779-10.667-10.667-10.667     s-10.667,4.779-10.667,10.667V288c0,5.888,4.779,10.667,10.667,10.667h42.667C272.635,298.667,277.414,293.888,277.414,288z" fill="#FFFFFF"/>
		</g>
	</g>
</g>
<g>
</g>
<g>
</g>
<g>
</g>
<g>
</g>
<g>
</g>
<g>
</g>
<g>
</g>
<g>
</g>
<g>
</g>
<g>
</g>
<g>
</g>
<g>
</g>
<g>
</g>
<g>
</g>
<g>
</g>
</svg>
